<svg width="40" height="17" viewBox="0 0 40 17" fill="none" xmlns="http://www.w3.org/2000/svg">
<path d="M4.07129 7.40625C3.09017 7.40625 2.30241 7.09831 1.70801 6.48242C1.12077 5.86654 0.827148 5.10384 0.827148 4.19434V3.36719C0.827148 2.45768 1.12077 1.69141 1.70801 1.06836C2.29525 0.445312 3.07585 0.133789 4.0498 0.133789C5.03809 0.133789 5.82585 0.445312 6.41309 1.06836C7.00033 1.68424 7.29395 2.45052 7.29395 3.36719V4.19434C7.29395 5.10384 7.00033 5.86654 6.41309 6.48242C5.82585 7.09831 5.04525 7.40625 4.07129 7.40625ZM4.07129 6.0957C4.59408 6.0957 4.9987 5.91309 5.28516 5.54785C5.57878 5.18262 5.72559 4.73145 5.72559 4.19434V3.36719C5.72559 2.83724 5.57878 2.38607 5.28516 2.01367C4.99154 1.63411 4.57975 1.44434 4.0498 1.44434C3.51986 1.44434 3.11165 1.63411 2.8252 2.01367C2.53874 2.38607 2.39551 2.83724 2.39551 3.36719V4.19434C2.39551 4.72428 2.53874 5.17546 2.8252 5.54785C3.11882 5.91309 3.53418 6.0957 4.07129 6.0957ZM4.5332 14.8184L3.3623 14.0986L11 1.87402L12.1709 2.59375L4.5332 14.8184ZM11.6445 16.2256C10.6562 16.2256 9.86849 15.9176 9.28125 15.3018C8.69401 14.6859 8.40039 13.9196 8.40039 13.0029V12.165C8.40039 11.5635 8.53288 11.0192 8.79785 10.5322C9.06283 10.0452 9.43522 9.65853 9.91504 9.37207C10.402 9.08561 10.9714 8.94238 11.623 8.94238C12.6042 8.94238 13.3883 9.25391 13.9756 9.87695C14.57 10.4928 14.8672 11.2555 14.8672 12.165V13.0029C14.8672 13.9196 14.5736 14.6859 13.9863 15.3018C13.3991 15.9176 12.6185 16.2256 11.6445 16.2256ZM11.6445 14.915C12.1745 14.915 12.5827 14.7324 12.8691 14.3672C13.1556 13.9948 13.2988 13.54 13.2988 13.0029V12.165C13.2988 11.6351 13.152 11.1839 12.8584 10.8115C12.5648 10.4391 12.153 10.2529 11.623 10.2529C11.0931 10.2529 10.6849 10.4391 10.3984 10.8115C10.112 11.1839 9.96875 11.6351 9.96875 12.165V13.0029C9.96875 13.54 10.112 13.9948 10.3984 14.3672C10.6921 14.7324 11.1074 14.915 11.6445 14.915ZM21.6123 16.1333C20.8971 16.1333 20.3534 15.9598 19.981 15.6128C19.6086 15.2616 19.4224 14.7686 19.4224 14.1338C19.4224 13.4821 19.689 12.9595 20.2222 12.5659C20.7554 12.1681 21.4959 11.9692 22.4438 11.9692H23.6689V11.2964C23.6689 10.8817 23.542 10.5601 23.2881 10.3315C23.0384 10.103 22.6851 9.98877 22.228 9.98877C21.9403 9.98877 21.6906 10.0247 21.479 10.0967C21.2674 10.1644 21.0749 10.2596 20.9014 10.3823L20.7681 11.3408H19.8032V9.7666C20.4253 9.25879 21.2399 9.00488 22.2471 9.00488C23.0807 9.00488 23.7345 9.20378 24.2085 9.60156C24.6825 9.99935 24.9194 10.5685 24.9194 11.3091V14.6162C24.9194 14.7051 24.9194 14.7918 24.9194 14.8765C24.9237 14.9611 24.93 15.0457 24.9385 15.1304L25.605 15.2002V16H23.8086C23.7367 15.653 23.6922 15.3377 23.6753 15.0542C23.4341 15.3631 23.1315 15.6213 22.7676 15.8286C22.4079 16.0317 22.0228 16.1333 21.6123 16.1333ZM21.7964 15.0859C22.2111 15.0859 22.5898 14.9865 22.9326 14.7876C23.2754 14.5887 23.5208 14.3496 23.6689 14.0703V12.8262H22.3994C21.8239 12.8262 21.3923 12.9637 21.1045 13.2388C20.8167 13.5138 20.6729 13.8206 20.6729 14.1592C20.6729 14.777 21.0474 15.0859 21.7964 15.0859ZM26.5127 16V15.2002L27.5474 15.0225V7.08154L26.5127 6.90381V6.09766H28.7979V15.0225L29.8325 15.2002V16H26.5127ZM33.7681 16.1333C33.146 16.1333 32.6043 15.9894 32.1431 15.7017C31.6818 15.4097 31.3242 15.0055 31.0703 14.4893C30.8164 13.973 30.6895 13.3763 30.6895 12.6992V12.4326C30.6895 11.7809 30.8122 11.1969 31.0576 10.6807C31.3031 10.1644 31.6564 9.75602 32.1177 9.45557C32.5789 9.15511 33.1291 9.00488 33.7681 9.00488C34.3224 9.00488 34.807 9.09587 35.2217 9.27783C35.6406 9.4598 35.9919 9.70947 36.2754 10.0269L36.3071 11.6772H35.3296L35.1138 10.4775C34.9699 10.3294 34.79 10.2109 34.5742 10.1221C34.3584 10.0332 34.1045 9.98877 33.8125 9.98877C33.4401 9.98877 33.1121 10.0988 32.8286 10.3188C32.5493 10.5389 32.3314 10.833 32.1748 11.2012C32.0182 11.5693 31.9399 11.9798 31.9399 12.4326V12.6992C31.9399 13.4525 32.1029 14.0513 32.4287 14.4956C32.7546 14.9357 33.1989 15.1558 33.7617 15.1558C34.1849 15.1558 34.5361 15.0394 34.8154 14.8066C35.0947 14.5739 35.2661 14.2544 35.3296 13.8481H36.4531L36.4658 13.8862C36.4447 14.2798 36.3283 14.6479 36.1167 14.9907C35.9051 15.3335 35.6025 15.6107 35.209 15.8223C34.8197 16.0296 34.3394 16.1333 33.7681 16.1333ZM37.894 16V14.7178H39.1445V16H37.894Z" fill="white"/>
</svg>
