<svg width="67" height="74" viewBox="0 0 67 74" fill="none" xmlns="http://www.w3.org/2000/svg">
<g clip-path="url(#clip0)">
<path d="M48.1613 13.6467L42.1314 14.6147L41.3265 9.60081C41.0597 7.93931 39.4937 6.80914 37.8286 7.07644L3.65889 12.5617C1.99375 12.8291 0.860135 14.3926 1.12686 16.0541L9.17579 66.1934C9.44251 67.8549 11.0086 68.9851 12.6737 68.7178L46.8434 63.2325C48.5085 62.9652 49.6421 61.4016 49.3754 59.7401L48.528 54.4617L57.9301 48.3265C61.2883 46.1352 63.0484 42.1656 62.4139 38.2137L59.821 22.0613C58.9333 16.5319 53.7028 12.7572 48.1613 13.6467ZM54.374 39.5043C54.4359 39.8917 54.3842 40.2888 54.2251 40.6477C54.066 41.0066 53.8062 41.3119 53.4772 41.5269L47.1178 45.6767L43.4192 22.637L49.4491 21.669C50.5574 21.4911 51.6035 22.2461 51.7811 23.3519L54.374 39.5043ZM33.8567 52.9737C32.7467 53.1519 31.7026 52.3984 31.5248 51.2908L27.0174 23.2128C26.8396 22.1052 27.5954 21.0627 28.7054 20.8845C29.8154 20.7063 30.8595 21.4599 31.0373 22.5674L35.5447 50.6455C35.7225 51.753 34.9667 52.7955 33.8567 52.9737ZM21.7968 54.9097C20.6868 55.0879 19.6427 54.3344 19.4649 53.2268L14.9575 25.1488C14.7797 24.0412 15.5355 22.9987 16.6455 22.8205C17.7555 22.6423 18.7997 23.3959 18.9775 24.5034L23.4849 52.5814C23.6627 53.689 22.9069 54.7315 21.7968 54.9097Z" fill="white" fill-opacity="0.33"/>
</g>
<defs>
<clipPath id="clip0">
<rect width="57" height="65" fill="white" transform="translate(0 9.03461) rotate(-9.11996)"/>
</clipPath>
</defs>
</svg>
