<svg width="22" height="22" viewBox="0 0 22 22" fill="none" xmlns="http://www.w3.org/2000/svg">
<g clip-path="url(#clip0)">
<path d="M8.77854 0.214702C4.50745 1.0483 1.06565 4.4815 0.223462 8.7397C-1.36638 16.7749 5.88245 22.7647 11.3438 21.9182C13.1141 21.6432 13.9821 19.5721 13.1699 17.978C12.1774 16.0272 13.5953 13.7499 15.7867 13.7499H19.2114C20.7496 13.7499 21.9957 12.478 22 10.944C21.9785 4.17212 15.8168 -1.156 8.77854 0.214702ZM4.12502 13.7499C3.36448 13.7499 2.75002 13.1354 2.75002 12.3749C2.75002 11.6143 3.36448 10.9999 4.12502 10.9999C4.88557 10.9999 5.50002 11.6143 5.50002 12.3749C5.50002 13.1354 4.88557 13.7499 4.12502 13.7499ZM5.50002 8.24986C4.73948 8.24986 4.12502 7.63541 4.12502 6.87486C4.12502 6.11431 4.73948 5.49986 5.50002 5.49986C6.26057 5.49986 6.87502 6.11431 6.87502 6.87486C6.87502 7.63541 6.26057 8.24986 5.50002 8.24986ZM11 5.49986C10.2395 5.49986 9.62502 4.88541 9.62502 4.12486C9.62502 3.36431 10.2395 2.74986 11 2.74986C11.7606 2.74986 12.375 3.36431 12.375 4.12486C12.375 4.88541 11.7606 5.49986 11 5.49986ZM16.5 8.24986C15.7395 8.24986 15.125 7.63541 15.125 6.87486C15.125 6.11431 15.7395 5.49986 16.5 5.49986C17.2606 5.49986 17.875 6.11431 17.875 6.87486C17.875 7.63541 17.2606 8.24986 16.5 8.24986Z" fill="white"/>
</g>
<defs>
<clipPath id="clip0">
<rect width="22" height="22" fill="white"/>
</clipPath>
</defs>
</svg>
