<svg xmlns="http://www.w3.org/2000/svg" viewBox="0 0 73.12 96.11"><defs><style>.cls-1{fill:#fff;}</style></defs><title>hop_1</title><g id="Calque_2" data-name="Calque 2"><g id="Calque_1-2" data-name="Calque 1"><path class="cls-1" d="M16.92,25.31l11-14.39c3.47-.12,3.47-.12,6.57,1.42C46.66,2.65,50.75.25,55.52,0c4.42,5.18,7,12.81,8.66,25.72l6.16.44c2.73,5.91.83,12,.68,18.19l2.1,3.3c-.1,5.46-1.88,10.61-4.42,16,1.71,3,.4,5.81-1.56,8.43C58.56,83.54,47.28,89.32,32.75,88.09c-1.82-.16-3.62-.45-5.36-.68-2.12,2.48.43,6.16-2.88,8.7l-4.25-.77c0-3.6,0-6.86,0-10.67-.93-.58-2.31-1.42-3.67-2.3C3.33,73.83-2.17,58.77.77,45.85c.29-1.28.5-3,1.39-3.64,3.52-2.54,4.24-6.62,6.12-10.05.72-1.32,1.4-2.65,2.17-3.93C12.6,24.64,12.79,24.57,16.92,25.31ZM42,63a39.81,39.81,0,0,0-3.62-14.54C32.91,50,28.63,53,24.55,56.07a7.52,7.52,0,0,0,.23,1.39c.46,1.25,1,2.48,1.43,3.72,1.31,3.45.79,4.27-3.36,5.23-2.4-1.47-3.07-4.16-4.14-6.53C16.29,54.51,12,51.2,6.92,48.45,4.2,60.6,13.11,75.32,23.33,78.17A41.75,41.75,0,0,1,42,63Zm-.08-22.34,3.75,7.11,4.46-2.06c0-6.67-1.68-12.61-4.28-18.78-5.24,2.87-10.12,5.59-14.15,9.74l-.15,4.15L28,42.65c-4.48-3.07-7.64-7.55-12.73-9.76a40.53,40.53,0,0,0-4.45,9.81l10,8.12C27.51,46.88,33.49,41.91,41.87,40.65ZM22.4,29.45l4.05,3.38a56.56,56.56,0,0,1,17.62-12.2c1.92-.85,3.64-1.64,5.87-.16l3.5,7.5,4.08-1.45a41.89,41.89,0,0,0-4.77-19A39.41,39.41,0,0,0,39.27,17.1c-.43,4.67-.43,4.67-4.06,5.43l-5.08-4c-1.23,1.51-2.36,2.72-3.29,4.07C25.34,24.74,24,27,22.4,29.45Zm38.86,39c-11.95-3.38-26.38,2.34-31,12.29C41.34,84.33,55.94,78.55,61.26,68.4Zm1.28-7.11c1.68-3.11,3.25-6.26,3.36-10.08C59.2,51,53,51.09,47.16,54.37l1.25,6.37ZM56.78,44.66l7.55,0c.39-4,.75-7.86,1.19-12.4L55.19,34C55.74,37.65,56.22,40.88,56.78,44.66Z"/></g></g></svg>