<svg width="23" height="23" viewBox="0 0 23 23" fill="none" xmlns="http://www.w3.org/2000/svg">
<g clip-path="url(#clip0)">
<path d="M6.43268 14.5318C6.49469 14.4662 6.55482 14.3992 6.61851 14.3355C7.12619 13.8277 7.63303 13.3188 8.14449 12.8145C8.22059 12.7393 8.21848 12.6975 8.14449 12.622C7.58678 12.0478 7.11147 11.4138 6.77807 10.6822C6.56407 10.213 6.4146 9.722 6.4022 9.20535C6.39274 8.8043 6.48881 8.41334 6.6223 8.03437C6.85459 7.37521 7.20859 6.78394 7.66162 6.25762C7.97358 5.89483 8.32296 5.56399 8.65343 5.21696C8.71355 5.15391 8.75664 5.14802 8.82707 5.20856C9.72785 5.98122 10.4758 6.86697 10.8902 7.9978C10.9993 8.30495 11.0669 8.62532 11.0911 8.95038C11.117 9.25243 11.069 9.54291 11.007 9.83424C10.9999 9.86766 10.9942 9.9015 10.9923 9.91201L12.7855 8.12896C12.7027 8.03857 12.6074 7.93684 12.5149 7.83301C11.9263 7.17343 11.4283 6.45625 11.1613 5.60498C11.0669 5.30094 11.0073 4.98713 10.9839 4.66963C10.9511 4.23117 11.0718 3.80784 11.2191 3.39734C11.4699 2.69887 11.8685 2.08637 12.3592 1.53588C12.6324 1.22816 12.9385 0.947346 13.2255 0.651186C13.3001 0.574046 13.3537 0.588129 13.4258 0.651186C13.9259 1.08859 14.3928 1.55795 14.759 2.11433C14.9661 2.42962 15.1374 2.7676 15.3241 3.0955C15.3712 3.17832 15.3771 3.26366 15.3552 3.35824C15.2109 3.99703 15.1309 4.64864 15.1164 5.30335C15.1031 5.90134 15.1438 6.4993 15.2379 7.08998C15.2693 7.29401 15.299 7.49831 15.327 7.7029C15.3356 7.76596 15.3657 7.79181 15.4296 7.79559C16.2055 7.84015 16.9802 7.90783 17.7586 7.87967C18.3538 7.85622 18.9453 7.77435 19.5245 7.63522C19.6292 7.60685 19.7405 7.6153 19.8398 7.65918C20.4016 7.89874 20.9222 8.22547 21.3822 8.62732C21.7111 8.91486 22.017 9.22889 22.3317 9.53282C22.3761 9.57486 22.4122 9.6272 22.4578 9.68206C22.3191 9.83319 22.1928 9.98305 22.054 10.1203C21.3393 10.8284 20.5537 11.4334 19.5995 11.7947C18.8114 12.093 18.0298 12.0997 17.2406 11.801C16.5299 11.532 15.902 11.1328 15.3356 10.6311C15.1994 10.5102 15.0624 10.3912 14.9316 10.2637C14.8685 10.2025 14.8322 10.2017 14.7712 10.2637C14.4168 10.628 14.06 10.9895 13.701 11.348C13.5082 11.5414 13.3108 11.7304 13.1157 11.9216C13.0911 11.9456 13.0686 11.9717 13.0251 12.0183C13.1513 11.9946 13.252 11.9763 13.3522 11.9574C14.0039 11.8414 14.6211 11.9715 15.2194 12.2184C16.15 12.6025 16.9146 13.22 17.6024 13.942C17.6773 14.0206 17.7473 14.1041 17.8242 14.1804C17.8757 14.2317 17.8736 14.271 17.8242 14.3208C17.5223 14.6176 17.2343 14.9303 16.9186 15.2103C16.4986 15.5883 16.0277 15.9054 15.5196 16.1526C14.9558 16.4233 14.3712 16.6322 13.7346 16.6035C13.1777 16.5782 12.6568 16.4044 12.159 16.1568C11.6093 15.8835 11.1153 15.53 10.6604 15.1197C10.5343 15.0052 10.4081 14.8885 10.291 14.7819L8.49555 16.5736C8.51041 16.5772 8.52577 16.5782 8.54096 16.5765C9.26138 16.4004 9.953 16.5162 10.627 16.788C11.2417 17.0382 11.8085 17.3929 12.3022 17.8364C12.6312 18.1292 12.9328 18.4512 13.2509 18.7575C13.3047 18.8096 13.3007 18.8489 13.253 18.8971C13.0285 19.1232 12.8105 19.3559 12.5793 19.5747C12.2353 19.9048 11.8574 20.1976 11.4519 20.4483C10.8756 20.7995 10.2673 21.066 9.59142 21.16C9.13945 21.223 8.70514 21.1436 8.27777 21.0128C7.53254 20.7839 6.88402 20.381 6.29457 19.8778C6.12429 19.7326 5.96053 19.5791 5.79803 19.4249C5.73496 19.3643 5.6843 19.3591 5.62103 19.4225C5.36603 19.6777 5.10788 19.9297 4.85268 20.1847C4.06183 20.9746 3.26364 21.7573 2.48457 22.5586C1.97563 23.0822 1.14127 23.1492 0.569896 22.7099C0.212525 22.4352 0.0168116 22.0701 0.00104523 21.6111C-0.0145109 21.1619 0.154925 20.7949 0.46794 20.4823C1.49717 19.4556 2.52542 18.4278 3.55269 17.3988C3.66158 17.2899 3.66032 17.2912 3.55584 17.1821C2.94011 16.5391 2.41751 15.8323 2.09503 14.9951C1.92118 14.5453 1.80241 14.0799 1.83415 13.5914C1.86232 13.1538 1.98277 12.7376 2.15263 12.3347C2.44694 11.6354 2.87809 11.0256 3.39418 10.4747C3.6023 10.2527 3.82345 10.0427 4.04123 9.82982C4.16463 9.70938 4.1661 9.71296 4.29539 9.82247C4.88211 10.3191 5.39252 10.8833 5.80434 11.5336C6.22708 12.2016 6.51698 12.9177 6.51908 13.7196C6.51908 13.9687 6.45601 14.218 6.42091 14.4671C6.41859 14.4833 6.41418 14.499 6.41082 14.5152L6.43268 14.5318Z" fill="white"/>
<path d="M22.9962 0.765727C23.0225 1.66198 22.9061 2.54016 22.6239 3.39312C22.4173 4.01718 22.1278 4.60004 21.6656 5.0776C21.3231 5.43135 20.9073 5.68715 20.4585 5.88431C19.7264 6.20781 18.9412 6.39432 18.1419 6.43459C17.6571 6.4594 17.1702 6.44783 16.6844 6.45456C16.6056 6.45561 16.5715 6.42703 16.5692 6.34505C16.5585 5.97448 16.5202 5.60308 16.5341 5.23377C16.5718 4.22107 16.7464 3.23695 17.2173 2.32388C17.6119 1.55941 18.207 1.0064 18.9844 0.63751C19.6912 0.30055 20.4547 0.0985935 21.2357 0.0420371C21.7787 0.00294146 22.3265 0.0140816 22.8718 -1.22046e-06C22.9559 -0.00210314 22.9956 0.0323683 22.9958 0.114763C22.9964 0.331681 22.9965 0.548669 22.9962 0.765727Z" fill="white"/>
</g>
<defs>
<clipPath id="clip0">
<rect width="23" height="23" fill="white"/>
</clipPath>
</defs>
</svg>
