<svg width="27" height="27" viewBox="0 0 27 27" fill="none" xmlns="http://www.w3.org/2000/svg">
<g clip-path="url(#clip0)">
<path d="M22.7898 7.26013L19.7405 4.21083C19.4597 3.93007 19.0047 3.93007 18.7239 4.21083L17.7073 5.22741C17.4265 5.50817 17.4265 5.96323 17.7073 6.24399L14.2632 9.68815C12.1707 8.80319 9.66315 9.20614 7.95747 10.9114L0.842742 18.0261C-0.279856 19.1487 -0.279856 20.9694 0.842742 22.092L4.90862 26.1579C6.03122 27.2805 7.8519 27.2805 8.9745 26.1579L16.0897 19.0427C17.7949 17.3374 18.1979 14.8295 17.3129 12.737L20.7571 9.29284C21.0378 9.5736 21.4929 9.5736 21.7736 9.29284L22.7902 8.27626C23.0705 7.99595 23.0705 7.54089 22.7898 7.26013V7.26013ZM8.05135 23.0151L3.98548 18.9492L9.46774 13.467L13.5336 17.5329L8.05135 23.0151V23.0151Z" fill="white"/>
</g>
<circle cx="20.5" cy="1.5" r="1.5" fill="white"/>
<circle cx="24.5" cy="2.5" r="1.5" fill="white"/>
<circle cx="25.5" cy="6.5" r="1.5" fill="white"/>
<defs>
<clipPath id="clip0">
<rect width="23" height="23" fill="white" transform="translate(0 4)"/>
</clipPath>
</defs>
</svg>
